<svg width="198" height="69" viewBox="0 0 198 69" fill="none" xmlns="http://www.w3.org/2000/svg">
<path d="M116.332 3.09399C106.93 1.1709 97.5285 -0.752192 78.0483 3.81272C58.5682 8.37763 29.2945 19.4888 14.5346 26.7085C-0.225274 33.9282 0.415756 36.9196 1.49385 39.5291C2.57195 42.1385 4.06768 44.2753 7.72285 47.406C11.378 50.5367 17.1473 54.5965 27.9185 58.1837C38.6898 61.7709 54.2882 64.7623 74.6101 66.3034C94.932 67.8445 119.505 67.8445 135.369 67.0966C151.233 66.3487 157.643 64.853 164.791 62.5867C179.8 57.8286 189.908 52.9648 193.79 50.0607C197.119 47.5701 196.623 42.6112 195.768 37.5607C193.545 24.4257 186.301 20.3953 180.668 16.1639C178.753 14.7251 175.495 13.0332 167.232 10.2392C161.321 8.5136 151.919 6.16316 139.704 4.63181C127.489 3.10046 112.745 2.45943 97.5544 1.79898" stroke="#FF0000" stroke-width="2" stroke-linecap="round"/>
</svg>
